Coordinates
version=1
nRows=6
nColumns=34
inDegrees=yes

Units are S.I. units (second, meters, Newtons, ...)
If the header above contains a line with 'inDegrees', this indicates whether rotational values are in degrees (yes) or radians (no).

endheader
time	pelvis_tilt	pelvis_list	pelvis_rotation	pelvis_tx	pelvis_ty	pelvis_tz	hip_flexion_r	hip_adduction_r	hip_rotation_r	knee_angle_r	ankle_angle_r	subtalar_angle_r	mtp_angle_r	hip_flexion_l	hip_adduction_l	hip_rotation_l	knee_angle_l	ankle_angle_l	subtalar_angle_l	mtp_angle_l	lumbar_extension	lumbar_bending	lumbar_rotation	arm_flex_r	arm_add_r	arm_rot_r	elbow_flex_r	pro_sup_r	arm_flex_l	arm_add_l	arm_rot_l	elbow_flex_l	pro_sup_l
      0.00000000	     20.17455161	      1.98398128	      3.22568147	      0.27968834	      0.67783148	     -0.15066987	     71.96846433	    -11.80741138	      1.61318885	    102.18489084	    -10.88753811	    -33.63761122	      0.00000000	     68.28580752	     -9.73455051	     -0.05558079	     99.54764629	      6.22424636	     -6.26782715	      0.00000000	    -42.08325283	      4.26579837	      7.54090969	      0.41317789	     -7.85060051	    -12.47426617	     45.33144806	     97.89762447	    178.49309954	    -22.35690534	     65.20900628	     27.11393946	     43.63177718
      0.01666670	     21.60251190	     -0.31249868	      3.53201710	      0.28801687	      0.67996343	     -0.15326682	     70.16784680	     -9.75884461	     -1.10249245	    100.69541199	     -2.58987400	    -31.60747906	      0.00000000	     71.15378862	     -7.59376413	      3.68832766	    102.64360184	     12.76175891	     -2.71953675	      0.00000000	    -41.04846971	      6.69555150	      5.46862003	      1.95610975	     -8.84181051	    -14.01040818	     45.18756269	     96.61296080	    177.42637962	    -21.12079682	     68.82376339	     19.98350867	     46.06593676
      0.03333330	     22.80305262	     -0.24176943	      3.95309153	      0.29229680	      0.68653089	     -0.15422134	     68.75755945	    -10.33528033	     -1.66259738	    100.23472786	      2.83784714	    -29.24580698	      0.00000000	     69.88833374	     -6.42612485	      4.27742598	    101.89231348	     13.58648057	     -4.90391830	      0.00000000	    -41.14440071	      6.99587317	      5.69755185	      1.39964023	     -8.49591917	    -18.61204944	     46.85100823	     94.32262807	    176.95402849	    -21.38302919	     72.83895545	     19.75540436	     50.00367615
      0.05000000	     23.43249685	      0.18193098	      3.86720972	      0.29224216	      0.68798206	     -0.15340183	     67.54801244	    -10.28061366	     -1.77925755	     99.48114778	      5.55586725	    -27.89274924	      0.00000000	     68.59498727	     -6.31512219	      3.95642403	    101.55613037	     13.74005210	     -5.17936557	      0.00000000	    -41.32282116	      6.49169672	      5.36493907	      1.17334448	     -7.54145254	    -20.58773709	     48.19056252	     92.61353502	    176.65313483	    -21.18143170	     74.66560415	     19.47036219	     55.08306499
      0.06666670	     23.84582237	      0.59007618	      3.46666366	      0.29281242	      0.68582962	     -0.15182939	     66.84612544	     -9.97455679	     -1.54591233	     99.36107098	      7.05112095	    -27.55114143	      0.00000000	     67.96432441	     -6.16717916	      3.60477856	    101.38488472	     13.50896167	     -6.25368894	      0.00000000	    -41.18465993	      5.95510152	      4.92289801	      1.46561574	     -7.21175774	    -20.93354703	     48.03320362	     92.63897934	    176.00450509	    -21.32559368	     74.52129340	     19.88230738	     55.51369672
      0.08333330	     23.98500115	      0.98162423	      3.38882494	      0.29392527	      0.69287748	     -0.15229074	     66.05489580	    -10.07793664	     -1.05666902	     99.07001542	      7.83617437	    -26.78595568	      0.00000000	     67.03258199	     -6.11006869	      3.08333579	    100.85601125	     13.03574555	     -6.70601378	      0.00000000	    -41.06234044	      5.62033841	      4.86045391	      1.47788852	     -6.56002348	    -22.39532462	     47.25148762	     93.08179839	    175.44694339	    -22.20938293	     74.10904409	     21.73551927	     56.47889175
